<svg width="64" height="64" viewBox="0 0 64 64" fill="none" xmlns="http://www.w3.org/2000/svg">
<circle cx="32" cy="32" r="32" fill="url(#paint0_linear)"/>
<path d="M31.9766 17.2109C33.7461 17.2109 35.416 17.3691 36.9863 17.6855C38.5566 18.002 39.9277 18.4414 41.0996 19.0039C42.2832 19.5664 43.2207 20.2402 43.9121 21.0254C44.6035 21.8105 44.9492 22.6719 44.9492 23.6094V26.457H40.3789V24.9453C40.3789 24.4414 40.1855 23.9609 39.7988 23.5039C39.4121 23.0469 38.8555 22.6426 38.1289 22.291C37.4141 21.9395 36.5352 21.6641 35.4922 21.4648C34.4609 21.2539 33.2891 21.1484 31.9766 21.1484C30.7109 21.1484 29.5625 21.248 28.5312 21.4473C27.5 21.6465 26.6152 21.916 25.877 22.2559C25.1387 22.5957 24.5703 23 24.1719 23.4688C23.7734 23.9258 23.5742 24.418 23.5742 24.9453V36.3359C23.5742 36.8516 23.7734 37.3438 24.1719 37.8125C24.5703 38.2695 25.1387 38.6738 25.877 39.0254C26.6152 39.3652 27.5 39.6348 28.5312 39.834C29.5625 40.0332 30.7109 40.1328 31.9766 40.1328C33.2891 40.1328 34.4609 40.0332 35.4922 39.834C36.5352 39.623 37.4141 39.3418 38.1289 38.9902C38.8555 38.6387 39.4121 38.2344 39.7988 37.7773C40.1855 37.3203 40.3789 36.8398 40.3789 36.3359V33.8047C39.2891 33.8047 38.3105 33.834 37.4434 33.8926C36.5879 33.9512 35.8555 34.0098 35.2461 34.0684C34.5312 34.1504 33.8984 34.2383 33.3477 34.332L33.8047 30.0781C35.5977 29.9375 37.2852 29.8672 38.8672 29.8672C40.9883 29.8672 43.0156 29.9727 44.9492 30.1836V37.6719C44.9492 38.6094 44.6035 39.4707 43.9121 40.2559C43.2207 41.0293 42.2832 41.6973 41.0996 42.2598C39.9277 42.8223 38.5566 43.2617 36.9863 43.5781C35.416 43.8828 33.7461 44.0352 31.9766 44.0352C30.207 44.0352 28.5371 43.8828 26.9668 43.5781C25.3965 43.2617 24.0195 42.8223 22.8359 42.2598C21.6641 41.6973 20.7324 41.0293 20.041 40.2559C19.3496 39.4707 19.0039 38.6094 19.0039 37.6719V23.6094C19.0039 22.6719 19.3496 21.8105 20.041 21.0254C20.7324 20.2402 21.6641 19.5664 22.8359 19.0039C24.0195 18.4414 25.3965 18.002 26.9668 17.6855C28.5371 17.3691 30.207 17.2109 31.9766 17.2109Z" fill="url(#paint1_linear)"/>
<defs>
<linearGradient id="paint0_linear" x1="13.5" y1="6" x2="44.5" y2="58.5" gradientUnits="userSpaceOnUse">
<stop stop-color="#E574BC"/>
<stop offset="1" stop-color="#E574BC" stop-opacity="0"/>
</linearGradient>
<linearGradient id="paint1_linear" x1="25" y1="24" x2="47" y2="55" gradientUnits="userSpaceOnUse">
<stop stop-color="#111111"/>
<stop offset="1" stop-opacity="0"/>
</linearGradient>
</defs>
</svg>
